<?xml version="1.0" encoding="UTF-8"?>
<svg width="30px" height="30px" viewBox="0 0 30 30" version="1.1" xmlns="http://www.w3.org/2000/svg" xmlns:xlink="http://www.w3.org/1999/xlink">
    <!-- Generator: sketchtool 53 (72520) - https://sketchapp.com -->
    <title>C83013DE-FB60-4C49-927B-7EEBF3E2CD1F</title>
    <desc>Created with sketchtool.</desc>
    <g id="Page-1" stroke="none" stroke-width="1" fill="none" fill-rule="evenodd">
        <g id="IE_home_xl_Short_form" transform="translate(-545.000000, -1887.000000)" fill-rule="nonzero">
            <g id="device" transform="translate(0.000000, 1530.000000)">
                <g id="Group-2-Copy" transform="translate(375.000000, 347.000000)">
                    <g id="Group-Copy-5" transform="translate(170.000000, 10.000000)">
                        <g id="ic_plus_green">
                            <circle id="Oval" fill="#7ED321" cx="15" cy="15" r="15"></circle>
                            <path d="M16,14 L21,14 C21.5522847,14 22,14.4477153 22,15 C22,15.5522847 21.5522847,16 21,16 L16,16 L16,21 C16,21.5522847 15.5522847,22 15,22 C14.4477153,22 14,21.5522847 14,21 L14,16 L9,16 C8.44771525,16 8,15.5522847 8,15 C8,14.4477153 8.44771525,14 9,14 L14,14 L14,9 C14,8.44771525 14.4477153,8 15,8 C15.5522847,8 16,8.44771525 16,9 L16,14 Z" id="Combined-Shape" fill="#FFFFFF"></path>
                        </g>
                    </g>
                </g>
            </g>
        </g>
    </g>
</svg>